<svg width="512" height="512" viewBox="0 0 512 512" fill="none" xmlns="http://www.w3.org/2000/svg">
  <rect width="512" height="512" rx="120" fill="#050914"/>
  <rect x="42" y="42" width="428" height="428" rx="100" fill="#111827" stroke="#233048" stroke-width="8"/>
  <path d="M126 150C126 128.909 143.909 111 165 111H257C309.467 111 348 141.781 348 188C348 223.8 323.727 248.485 291.729 257.606C328.04 265.99 356 291.781 356 332C356 384.802 312.427 418 253 418H165C143.909 418 126 400.091 126 379V150Z" fill="#F5F7FF"/>
  <path d="M257 111H347C387.317 111 420 143.683 420 184V332C420 379.496 381.496 418 334 418H257V111Z" fill="#2D7DFF"/>
  <path d="M196 178H249C269.435 178 286 194.565 286 215C286 235.435 269.435 252 249 252H196V178Z" fill="#111827"/>
  <path d="M196 287H257C279.091 287 297 304.909 297 327C297 349.091 279.091 367 257 367H196V287Z" fill="#111827"/>
</svg>
